<?xml version="1.0" encoding="UTF-8" standalone="no"?>
<!-- Created with Inkscape (http://www.inkscape.org/) -->

<svg
   xmlns:dc="http://purl.org/dc/elements/1.1/"
   xmlns:cc="http://creativecommons.org/ns#"
   xmlns:rdf="http://www.w3.org/1999/02/22-rdf-syntax-ns#"
   xmlns:svg="http://www.w3.org/2000/svg"
   xmlns="http://www.w3.org/2000/svg"
   xmlns:xlink="http://www.w3.org/1999/xlink"
   xmlns:sodipodi="http://sodipodi.sourceforge.net/DTD/sodipodi-0.dtd"
   xmlns:inkscape="http://www.inkscape.org/namespaces/inkscape"
   width="96"
   height="96"
   id="svg6517"
   version="1.1"
   inkscape:version="0.91 r13725"
   sodipodi:docname="flannel_circle.svg"
   viewBox="0 0 96 96">
  <defs
     id="defs6519">
    <linearGradient
       id="Background">
      <stop
         id="stop4178"
         offset="0"
         style="stop-color:#22779e;stop-opacity:1" />
      <stop
         id="stop4180"
         offset="1"
         style="stop-color:#2991c0;stop-opacity:1" />
    </linearGradient>
    <filter
       style="color-interpolation-filters:sRGB"
       inkscape:label="Inner Shadow"
       id="filter1121">
      <feFlood
         flood-opacity="0.59999999999999998"
         flood-color="rgb(0,0,0)"
         result="flood"
         id="feFlood1123" />
      <feComposite
         in="flood"
         in2="SourceGraphic"
         operator="out"
         result="composite1"
         id="feComposite1125" />
      <feGaussianBlur
         in="composite1"
         stdDeviation="1"
         result="blur"
         id="feGaussianBlur1127" />
      <feOffset
         dx="0"
         dy="2"
         result="offset"
         id="feOffset1129" />
      <feComposite
         in="offset"
         in2="SourceGraphic"
         operator="atop"
         result="composite2"
         id="feComposite1131" />
    </filter>
    <filter
       style="color-interpolation-filters:sRGB"
       inkscape:label="Drop Shadow"
       id="filter950">
      <feFlood
         flood-opacity="0.25"
         flood-color="rgb(0,0,0)"
         result="flood"
         id="feFlood952" />
      <feComposite
         in="flood"
         in2="SourceGraphic"
         operator="in"
         result="composite1"
         id="feComposite954" />
      <feGaussianBlur
         in="composite1"
         stdDeviation="1"
         result="blur"
         id="feGaussianBlur956" />
      <feOffset
         dx="0"
         dy="1"
         result="offset"
         id="feOffset958" />
      <feComposite
         in="SourceGraphic"
         in2="offset"
         operator="over"
         result="composite2"
         id="feComposite960" />
    </filter>
    <clipPath
       clipPathUnits="userSpaceOnUse"
       id="clipPath873">
      <g
         transform="matrix(0,-0.66666667,0.66604479,0,-258.25992,677.00001)"
         id="g875"
         inkscape:label="Layer 1"
         style="display:inline;fill:#ff00ff;fill-opacity:1;stroke:none">
        <path
           style="display:inline;fill:#ff00ff;fill-opacity:1;stroke:none"
           d="M 46.702703,898.22775 H 97.297297 C 138.16216,898.22775 144,904.06497 144,944.92583 v 50.73846 c 0,40.86071 -5.83784,46.69791 -46.702703,46.69791 H 46.702703 C 5.8378378,1042.3622 0,1036.525 0,995.66429 v -50.73846 c 0,-40.86086 5.8378378,-46.69808 46.702703,-46.69808 z"
           id="path877"
           inkscape:connector-curvature="0"
           sodipodi:nodetypes="sssssssss" />
      </g>
    </clipPath>
    <style
       id="style867"
       type="text/css"><![CDATA[
    .fil0 {fill:#1F1A17}
   ]]></style>
    <clipPath
       id="clipPath16">
      <path
         id="path18"
         d="M -9,-9 H 605 V 222 H -9 Z"
         inkscape:connector-curvature="0" />
    </clipPath>
    <clipPath
       id="clipPath116">
      <path
         id="path118"
         d="m 91.7368,146.3253 -9.7039,-1.577 -8.8548,-3.8814 -7.5206,-4.7308 -7.1566,-8.7335 -4.0431,-4.282 -3.9093,-1.4409 -1.034,2.5271 1.8079,2.6096 0.4062,3.6802 1.211,-0.0488 1.3232,-1.2069 -0.3569,3.7488 -1.4667,0.9839 0.0445,1.4286 -3.4744,-1.9655 -3.1462,-3.712 -0.6559,-3.3176 1.3453,-2.6567 1.2549,-4.5133 2.5521,-1.2084 2.6847,0.1318 2.5455,1.4791 -1.698,-8.6122 1.698,-9.5825 -1.8692,-4.4246 -6.1223,-6.5965 1.0885,-3.941 2.9002,-4.5669 5.4688,-3.8486 2.9007,-0.3969 3.225,-0.1094 -2.012,-8.2601 7.3993,-3.0326 9.2188,-1.2129 3.1535,2.0619 0.2427,5.5797 3.5178,5.8224 0.2426,4.6094 8.4909,-0.6066 7.8843,0.7279 -7.8843,-4.7307 1.3343,-5.701 4.9731,-7.763 4.8521,-2.0622 3.8814,1.5769 1.577,3.1538 8.1269,6.1861 1.5769,-1.3343 12.7363,-0.485 2.5473,2.0619 0.2426,3.6391 -0.849,1.5767 -0.6066,9.8251 -4.2454,8.4909 0.7276,3.7605 2.5475,-1.3343 7.1566,-6.6716 3.5175,-0.2424 3.8815,1.5769 3.8818,2.9109 1.9406,6.3077 11.4021,-0.7277 6.914,2.6686 5.5797,5.2157 4.0028,7.5206 0.9706,8.8546 -0.8493,10.3105 -2.1832,9.2185 -2.1836,2.9112 -3.0322,0.9706 -5.3373,-5.8224 -4.8518,-1.6982 -4.2455,7.0353 -4.2454,3.8815 -2.3049,1.4556 -9.2185,7.6419 -7.3993,4.0028 -7.3993,0.6066 -8.6119,-1.4556 -7.5206,-2.7899 -5.2158,-4.2454 -4.1241,-4.9734 -4.2454,-1.2129"
         inkscape:connector-curvature="0" />
    </clipPath>
    <clipPath
       id="clipPath128">
      <path
         id="path130"
         d="m 91.7368,146.3253 -9.7039,-1.577 -8.8548,-3.8814 -7.5206,-4.7308 -7.1566,-8.7335 -4.0431,-4.282 -3.9093,-1.4409 -1.034,2.5271 1.8079,2.6096 0.4062,3.6802 1.211,-0.0488 1.3232,-1.2069 -0.3569,3.7488 -1.4667,0.9839 0.0445,1.4286 -3.4744,-1.9655 -3.1462,-3.712 -0.6559,-3.3176 1.3453,-2.6567 1.2549,-4.5133 2.5521,-1.2084 2.6847,0.1318 2.5455,1.4791 -1.698,-8.6122 1.698,-9.5825 -1.8692,-4.4246 -6.1223,-6.5965 1.0885,-3.941 2.9002,-4.5669 5.4688,-3.8486 2.9007,-0.3969 3.225,-0.1094 -2.012,-8.2601 7.3993,-3.0326 9.2188,-1.2129 3.1535,2.0619 0.2427,5.5797 3.5178,5.8224 0.2426,4.6094 8.4909,-0.6066 7.8843,0.7279 -7.8843,-4.7307 1.3343,-5.701 4.9731,-7.763 4.8521,-2.0622 3.8814,1.5769 1.577,3.1538 8.1269,6.1861 1.5769,-1.3343 12.7363,-0.485 2.5473,2.0619 0.2426,3.6391 -0.849,1.5767 -0.6066,9.8251 -4.2454,8.4909 0.7276,3.7605 2.5475,-1.3343 7.1566,-6.6716 3.5175,-0.2424 3.8815,1.5769 3.8818,2.9109 1.9406,6.3077 11.4021,-0.7277 6.914,2.6686 5.5797,5.2157 4.0028,7.5206 0.9706,8.8546 -0.8493,10.3105 -2.1832,9.2185 -2.1836,2.9112 -3.0322,0.9706 -5.3373,-5.8224 -4.8518,-1.6982 -4.2455,7.0353 -4.2454,3.8815 -2.3049,1.4556 -9.2185,7.6419 -7.3993,4.0028 -7.3993,0.6066 -8.6119,-1.4556 -7.5206,-2.7899 -5.2158,-4.2454 -4.1241,-4.9734 -4.2454,-1.2129"
         inkscape:connector-curvature="0" />
    </clipPath>
    <linearGradient
       id="linearGradient3850"
       inkscape:collect="always">
      <stop
         id="stop3852"
         offset="0"
         style="stop-color:#000000;stop-opacity:1;" />
      <stop
         id="stop3854"
         offset="1"
         style="stop-color:#000000;stop-opacity:0;" />
    </linearGradient>
    <clipPath
       clipPathUnits="userSpaceOnUse"
       id="clipPath3095">
      <path
         d="M 976.648,389.551 H 134.246 V 1229.55 H 976.648 V 389.551"
         id="path3097"
         inkscape:connector-curvature="0" />
    </clipPath>
    <clipPath
       clipPathUnits="userSpaceOnUse"
       id="clipPath3195">
      <path
         d="m 611.836,756.738 -106.34,105.207 c -8.473,8.289 -13.617,20.102 -13.598,33.379 L 598.301,790.207 c -0.031,-13.418 5.094,-25.031 13.535,-33.469"
         id="path3197"
         inkscape:connector-curvature="0" />
    </clipPath>
    <clipPath
       clipPathUnits="userSpaceOnUse"
       id="clipPath3235">
      <path
         d="m 1095.64,1501.81 c 35.46,-35.07 70.89,-70.11 106.35,-105.17 4.4,-4.38 7.11,-10.53 7.11,-17.55 l -106.37,105.21 c 0,7 -2.71,13.11 -7.09,17.51"
         id="path3237"
         inkscape:connector-curvature="0" />
    </clipPath>
    <clipPath
       id="clipPath4591"
       clipPathUnits="userSpaceOnUse">
      <path
         inkscape:connector-curvature="0"
         d="m 1106.6009,730.43734 -0.036,21.648 c -0.01,3.50825 -2.8675,6.61375 -6.4037,6.92525 l -83.6503,7.33162 c -3.5205,0.30763 -6.3812,-2.29987 -6.3671,-5.8145 l 0.036,-21.6475 20.1171,-1.76662 -0.011,4.63775 c 0,1.83937 1.4844,3.19925 3.3262,3.0395 l 49.5274,-4.33975 c 1.8425,-0.166 3.3425,-1.78125 3.3538,-3.626 l 0.01,-4.63025 20.1,-1.7575"
         style="fill:#ff00ff;fill-opacity:1;fill-rule:nonzero;stroke:none"
         id="path4593" />
    </clipPath>
    <radialGradient
       gradientUnits="userSpaceOnUse"
       gradientTransform="matrix(-1.4333926,-2.2742838,1.1731823,-0.73941125,-174.08025,98.374394)"
       r="20.40658"
       fy="93.399292"
       fx="-26.508606"
       cy="93.399292"
       cx="-26.508606"
       id="radialGradient3856"
       xlink:href="#linearGradient3850"
       inkscape:collect="always" />
    <linearGradient
       gradientTransform="translate(-318.48033,212.32022)"
       gradientUnits="userSpaceOnUse"
       y2="993.19702"
       x2="-51.879555"
       y1="593.11615"
       x1="348.20132"
       id="linearGradient3895"
       xlink:href="#linearGradient3850"
       inkscape:collect="always" />
    <clipPath
       id="clipPath3906"
       clipPathUnits="userSpaceOnUse">
      <rect
         transform="scale(1,-1)"
         style="color:#000000;display:inline;overflow:visible;visibility:visible;opacity:0.8;fill:#ff00ff;stroke:none;stroke-width:4;marker:none;enable-background:accumulate"
         id="rect3908"
         width="1019.1371"
         height="1019.1371"
         x="357.9816"
         y="-1725.8152" />
    </clipPath>
  </defs>
  <sodipodi:namedview
     id="base"
     pagecolor="#ffffff"
     bordercolor="#666666"
     borderopacity="1.0"
     inkscape:pageopacity="0.0"
     inkscape:pageshadow="2"
     inkscape:zoom="4.074536"
     inkscape:cx="-140.43595"
     inkscape:cy="32.11876"
     inkscape:document-units="px"
     inkscape:current-layer="layer1"
     showgrid="true"
     fit-margin-top="0"
     fit-margin-left="0"
     fit-margin-right="0"
     fit-margin-bottom="0"
     inkscape:window-width="1920"
     inkscape:window-height="1029"
     inkscape:window-x="0"
     inkscape:window-y="24"
     inkscape:window-maximized="1"
     showborder="true"
     showguides="false"
     inkscape:guide-bbox="true"
     inkscape:showpageshadow="false"
     inkscape:snap-global="false"
     inkscape:snap-bbox="true"
     inkscape:bbox-paths="true"
     inkscape:bbox-nodes="true"
     inkscape:snap-bbox-edge-midpoints="true"
     inkscape:snap-bbox-midpoints="true"
     inkscape:object-paths="true"
     inkscape:snap-intersection-paths="true"
     inkscape:object-nodes="true"
     inkscape:snap-smooth-nodes="true"
     inkscape:snap-midpoints="true"
     inkscape:snap-object-midpoints="true"
     inkscape:snap-center="true"
     inkscape:snap-nodes="true"
     inkscape:snap-others="true"
     inkscape:snap-page="true">
    <inkscape:grid
       type="xygrid"
       id="grid821" />
    <sodipodi:guide
       orientation="1,0"
       position="16,48"
       id="guide823"
       inkscape:locked="false" />
    <sodipodi:guide
       orientation="0,1"
       position="64,80"
       id="guide825"
       inkscape:locked="false" />
    <sodipodi:guide
       orientation="1,0"
       position="80,40"
       id="guide827"
       inkscape:locked="false" />
    <sodipodi:guide
       orientation="0,1"
       position="64,16"
       id="guide829"
       inkscape:locked="false" />
  </sodipodi:namedview>
  <metadata
     id="metadata6522">
    <rdf:RDF>
      <cc:Work
         rdf:about="">
        <dc:format>image/svg+xml</dc:format>
        <dc:type
           rdf:resource="http://purl.org/dc/dcmitype/StillImage" />
        <dc:title />
      </cc:Work>
    </rdf:RDF>
  </metadata>
  <g
     inkscape:label="BACKGROUND"
     inkscape:groupmode="layer"
     id="layer1"
     transform="translate(268,-635.29076)"
     style="display:inline">
    <path
       style="display:inline;fill:#ffffff;fill-opacity:1;stroke:none"
       d="M 48 0 A 48 48 0 0 0 0 48 A 48 48 0 0 0 48 96 A 48 48 0 0 0 96 48 A 48 48 0 0 0 48 0 z "
       id="path6455"
       transform="translate(-268,635.29076)" />
    <path
       inkscape:connector-curvature="0"
       style="display:inline;fill:#53a2da;fill-opacity:1;stroke:none"
       d="m -220,635.29076 a 48,48 0 0 0 -48,48 48,48 0 0 0 48,48 48,48 0 0 0 48,-48 48,48 0 0 0 -48,-48 z"
       id="path6455-3" />
    <path
       style="color:#000000;font-style:normal;font-variant:normal;font-weight:normal;font-stretch:normal;font-size:medium;line-height:normal;font-family:sans-serif;text-indent:0;text-align:start;text-decoration:none;text-decoration-line:none;text-decoration-style:solid;text-decoration-color:#000000;letter-spacing:normal;word-spacing:normal;text-transform:none;direction:ltr;block-progression:tb;writing-mode:lr-tb;baseline-shift:baseline;text-anchor:start;white-space:normal;clip-rule:nonzero;display:inline;overflow:visible;visibility:visible;opacity:1;isolation:auto;mix-blend-mode:normal;color-interpolation:sRGB;color-interpolation-filters:linearRGB;solid-color:#000000;solid-opacity:1;fill:#ffffff;fill-opacity:1;fill-rule:nonzero;stroke:none;stroke-width:19.79999924;stroke-linecap:round;stroke-linejoin:miter;stroke-miterlimit:4;stroke-dasharray:none;stroke-dashoffset:0;stroke-opacity:1;marker:none;color-rendering:auto;image-rendering:auto;shape-rendering:auto;text-rendering:auto;enable-background:accumulate"
       d="m -210.73109,647.92331 c -12.45421,0 -22.59379,10.13959 -22.59379,22.59379 l 0,7.0975 0,3.7238 a 0.6425535,0.6425535 0 0 0 0.6425,0.64249 l 6.36089,0 a 0.6425535,0.6425535 0 0 0 0.64248,-0.64249 l 0,-3.7238 0,-7.0975 c 0,-8.35215 6.59577,-14.94791 14.94792,-14.94791 l 4.27719,0 a 0.6425535,0.6425535 0 0 0 0.6425,-0.64249 l 0,-6.36089 a 0.6425535,0.6425535 0 0 0 -0.6425,-0.6425 l -4.27719,0 z m 0.34885,10.87777 c -6.4289,0 -11.73385,5.15219 -11.98518,11.52529 a 0.6425535,0.6425535 0 0 0 0.64186,0.66757 l 6.37094,0 a 0.6425535,0.6425535 0 0 0 0.63997,-0.58915 c 0.18997,-2.28704 1.97407,-3.95846 4.33241,-3.95846 l 3.92834,0 a 0.6425535,0.6425535 0 0 0 0.6425,-0.64249 l 0,-6.36027 a 0.6425535,0.6425535 0 0 0 -0.6425,-0.64249 l -3.92834,0 z m -29.65426,13.29841 a 0.6425535,0.6425535 0 0 0 -0.63309,0.53142 l -1.12436,6.4249 a 0.6425535,0.6425535 0 0 0 0.63309,0.75354 l 6.09674,0 a 0.6425535,0.6425535 0 0 0 0.64249,-0.64249 l 0,-6.42488 a 0.6425535,0.6425535 0 0 0 -0.64249,-0.64249 l -4.97238,0 z m 16.17454,0 a 0.6425535,0.6425535 0 0 0 -0.6425,0.64249 l 0,6.42488 a 0.6425535,0.6425535 0 0 0 0.6425,0.64249 l 17.82593,0 a 0.6425535,0.6425535 0 0 0 0.63309,-0.53144 l 1.12434,-6.42488 a 0.6425535,0.6425535 0 0 0 -0.63307,-0.75354 l -18.95029,0 z m 2.1251,8.81164 a 0.6425535,0.6425535 0 0 0 -0.64248,0.64248 l 0,24.03939 c 0,4.13118 -1.61958,7.82464 -4.26277,10.51198 a 0.6425535,0.6425535 0 0 0 0.004,0.90475 l 4.4604,4.46041 a 0.6425535,0.6425535 0 0 0 0.91103,-0.003 c 4.03527,-4.08214 6.53344,-9.69461 6.53344,-15.87463 l 0,-24.0394 a 0.6425535,0.6425535 0 0 0 -0.6425,-0.64248 l -6.36089,0 z m -20.22711,2.14266 a 0.6425535,0.6425535 0 0 0 -0.63309,0.53144 l -1.12434,6.4249 a 0.6425535,0.6425535 0 0 0 0.63307,0.75355 l 18.94653,0 a 0.6425535,0.6425535 0 0 0 0.64249,-0.6425 l 0,-6.42489 a 0.6425535,0.6425535 0 0 0 -0.64249,-0.6425 l -17.82217,0 z m 29.02432,0 a 0.6425535,0.6425535 0 0 0 -0.64248,0.6425 l 0,6.42489 a 0.6425535,0.6425535 0 0 0 0.64248,0.6425 l 4.97615,0 a 0.6425535,0.6425535 0 0 0 0.63309,-0.53144 l 1.12436,-6.4249 a 0.6425535,0.6425535 0 0 0 -0.63309,-0.75355 l -6.10051,0 z m -19.74273,8.84365 a 0.6425535,0.6425535 0 0 0 -0.6425,0.64249 l 0,12.77198 c 0,1.18698 -0.43422,2.21835 -1.14883,2.9872 a 0.6425535,0.6425535 0 0 0 0.0163,0.89157 l 4.46355,4.46355 a 0.6425535,0.6425535 0 0 0 0.91542,-0.007 c 2.09711,-2.162 3.39942,-5.10779 3.39942,-8.33542 l 0,-12.77198 a 0.6425535,0.6425535 0 0 0 -0.64249,-0.64249 l -6.36089,0 z"
       id="rect4219"
       inkscape:connector-curvature="0" />
  </g>
  <g
     inkscape:groupmode="layer"
     id="layer3"
     inkscape:label="PLACE YOUR PICTOGRAM HERE"
     style="display:inline">
    <g
       id="g4185" />
  </g>
  <style
     id="style4217"
     type="text/css">
	.st0{fill:#419EDA;}
</style>
  <style
     id="style4285"
     type="text/css">
	.st0{clip-path:url(#SVGID_2_);fill:#EFBF1B;}
	.st1{clip-path:url(#SVGID_2_);fill:#40BEB0;}
	.st2{clip-path:url(#SVGID_2_);fill:#0AA5DE;}
	.st3{clip-path:url(#SVGID_2_);fill:#231F20;}
	.st4{fill:#D7A229;}
	.st5{fill:#009B8F;}
</style>
  <style
     id="style4240"
     type="text/css">
	.st0{fill:#E8478B;}
	.st1{fill:#40BEB0;}
	.st2{fill:#37A595;}
	.st3{fill:#231F20;}
</style>
  <style
     id="style4812"
     type="text/css">
	.st0{fill:#0AA5DE;}
	.st1{fill:#40BEB0;}
	.st2{opacity:0.26;fill:#353535;}
	.st3{fill:#231F20;}
</style>
</svg>
